<svg width="49" height="20" viewBox="0 0 49 20" fill="none" xmlns="http://www.w3.org/2000/svg">
    <style>
        path {
            fill: #000000;
        }
        @media (prefers-color-scheme:dark) {
            path {
                fill: #ffffff;
            }
        }
  </style>
    <path fill-rule="evenodd" clip-rule="evenodd" d="M38.3666 0.736389L43.2286 9.57411H28.2074L23.3684 0.736389H38.3666ZM24.1257 11.0241C22.4057 11.0241 20.617 10.8629 19.5162 9.91939C18.5987 9.20598 18.0941 8.37744 17.5667 7.43397C17.452 7.24681 16.1277 4.82963 15.106 2.96474L15.1055 2.96381C14.4929 1.84564 13.9891 0.926227 13.9204 0.80549H0C0.500179 1.7225 1.00036 2.64336 1.5011 3.56527L1.50114 3.56535L1.50117 3.56539C2.72228 5.81354 3.94676 8.06789 5.1828 10.2876C6.69629 13.0494 8.14103 15.6273 10.7783 17.5144C12.0399 18.4577 13.3698 19.0794 14.9294 19.4707C16.4659 19.839 18.0254 19.8849 19.6076 19.8849H31.9917L27.1299 11.0241H24.1257ZM29.0105 11.0011L33.8725 19.8849H48.8707L43.9857 11.0011H29.0105Z"/>
</svg>
